<svg class="main-svg" xmlns="http://www.w3.org/2000/svg" xmlns:xlink="http://www.w3.org/1999/xlink" width="750" height="500" style="" viewBox="0 0 750 500"><rect x="0" y="0" width="750" height="500" style="fill: rgb(255, 255, 255); fill-opacity: 1;"/><defs id="defs-dc643d"><g class="clips"/><g class="gradients"><linearGradient x1="0" x2="0" y1="1" y2="0" id="gdc643d-cbcoloraxis"><stop offset="0%" stop-color="rgb(150, 0, 90)" stop-opacity="1"/><stop offset="12.5%" stop-color="rgb(0, 0, 200)" stop-opacity="1"/><stop offset="25%" stop-color="rgb(0, 25, 255)" stop-opacity="1"/><stop offset="37.5%" stop-color="rgb(0, 152, 255)" stop-opacity="1"/><stop offset="50%" stop-color="rgb(44, 255, 150)" stop-opacity="1"/><stop offset="62.5%" stop-color="rgb(151, 255, 0)" stop-opacity="1"/><stop offset="75%" stop-color="rgb(255, 234, 0)" stop-opacity="1"/><stop offset="87.5%" stop-color="rgb(255, 111, 0)" stop-opacity="1"/><stop offset="100%" stop-color="rgb(255, 0, 0)" stop-opacity="1"/></linearGradient></g><g class="patterns"/></defs><g class="bglayer"/><g class="layer-below"><g class="imagelayer"/><g class="shapelayer"/></g><g class="cartesianlayer"/><g class="polarlayer"/><g class="smithlayer"/><g class="ternarylayer"/><g class="geolayer"/><g class="funnelarealayer"/><g class="pielayer"/><g class="iciclelayer"/><g class="treemaplayer"/><g class="sunburstlayer"/><g class="glimages"/><g class="parcatslayer" style="pointer-events: none;"><g class="trace parcats" transform="translate(80,60)"><g class="paths"><path class="path" stroke-opacity="1" fill="rgb(150, 0, 90)" fill-opacity="0.6" stroke="lightgray" stroke-width="0.2" d="M 40,0l16,0 C56,0 134.6,16 134.6,16l16,0 C150.6,16 229.2,4 229.2,4l16,0 C245.2,4 323.79999999999995,16 323.79999999999995,16l16,0 C339.79999999999995,16 418.4,16 418.4,16l16,0 C434.4,16 513,12 513,12l16,0 l0,44.57142857142856 l -16,0 C513,56.57142857142856 434.4,60.57142857142856 434.4,60.57142857142856l-16,0 C418.4,60.57142857142856 339.79999999999995,60.57142857142856 339.79999999999995,60.57142857142856l-16,0 C323.79999999999995,60.57142857142856 245.2,48.57142857142856 245.2,48.57142857142856l-16,0 C229.2,48.57142857142856 150.6,60.57142857142856 150.6,60.57142857142856l-16,0 C134.6,60.57142857142856 56,44.57142857142856 56,44.57142857142856l-16,0 Z"/><path class="path" stroke-opacity="1" fill="rgb(0, 51, 255)" fill-opacity="0.6" stroke="lightgray" stroke-width="0.2" d="M 40,52.57142857142857l16,0 C56,52.57142857142857 134.6,60.57142857142856 134.6,60.57142857142856l16,0 C150.6,60.57142857142856 229.2,56.57142857142857 229.2,56.57142857142857l16,0 C245.2,56.57142857142857 323.79999999999995,68.57142857142857 323.79999999999995,68.57142857142857l16,0 C339.79999999999995,68.57142857142857 418.4,60.57142857142856 418.4,60.57142857142856l16,0 C434.4,60.57142857142856 513,153.7142857142857 513,153.7142857142857l16,0 l0,44.57142857142856 l -16,0 C513,198.28571428571425 434.4,105.14285714285712 434.4,105.14285714285712l-16,0 C418.4,105.14285714285712 339.79999999999995,113.14285714285714 339.79999999999995,113.14285714285714l-16,0 C323.79999999999995,113.14285714285714 245.2,101.14285714285714 245.2,101.14285714285714l-16,0 C229.2,101.14285714285714 150.6,105.14285714285712 150.6,105.14285714285712l-16,0 C134.6,105.14285714285712 56,97.14285714285714 56,97.14285714285714l-16,0 Z"/><path class="path" stroke-opacity="1" fill="rgb(28, 217, 189)" fill-opacity="0.6" stroke="lightgray" stroke-width="0.2" d="M 40,105.14285714285714l16,0 C56,105.14285714285714 134.6,113.14285714285714 134.6,113.14285714285714l16,0 C150.6,113.14285714285714 229.2,153.71428571428572 229.2,153.71428571428572l16,0 C245.2,153.71428571428572 323.79999999999995,121.14285714285714 323.79999999999995,121.14285714285714l16,0 C339.79999999999995,121.14285714285714 418.4,113.14285714285714 418.4,113.14285714285714l16,0 C434.4,113.14285714285714 513,206.28571428571428 513,206.28571428571428l16,0 l0,44.57142857142856 l -16,0 C513,250.85714285714283 434.4,157.7142857142857 434.4,157.7142857142857l-16,0 C418.4,157.7142857142857 339.79999999999995,165.7142857142857 339.79999999999995,165.7142857142857l-16,0 C323.79999999999995,165.7142857142857 245.2,198.28571428571428 245.2,198.28571428571428l-16,0 C229.2,198.28571428571428 150.6,157.7142857142857 150.6,157.7142857142857l-16,0 C134.6,157.7142857142857 56,149.7142857142857 56,149.7142857142857l-16,0 Z"/><path class="path" stroke-opacity="1" fill="rgb(172, 251, 0)" fill-opacity="0.6" stroke="lightgray" stroke-width="0.2" d="M 40,157.71428571428572l16,0 C56,157.71428571428572 134.6,165.71428571428572 134.6,165.71428571428572l16,0 C150.6,165.71428571428572 229.2,206.28571428571428 229.2,206.28571428571428l16,0 C245.2,206.28571428571428 323.79999999999995,165.7142857142857 323.79999999999995,165.7142857142857l16,0 C339.79999999999995,165.7142857142857 418.4,157.7142857142857 418.4,157.7142857142857l16,0 C434.4,157.7142857142857 513,258.85714285714283 513,258.85714285714283l16,0 l0,44.57142857142856 l -16,0 C513,303.4285714285714 434.4,202.28571428571425 434.4,202.28571428571425l-16,0 C418.4,202.28571428571425 339.79999999999995,210.28571428571425 339.79999999999995,210.28571428571425l-16,0 C323.79999999999995,210.28571428571425 245.2,250.85714285714283 245.2,250.85714285714283l-16,0 C229.2,250.85714285714283 150.6,210.28571428571428 150.6,210.28571428571428l-16,0 C134.6,210.28571428571428 56,202.28571428571428 56,202.28571428571428l-16,0 Z"/><path class="path" stroke-opacity="1" fill="rgb(252, 235, 0)" fill-opacity="0.6" stroke="lightgray" stroke-width="0.2" d="M 40,210.28571428571428l16,0 C56,210.28571428571428 134.6,210.28571428571428 134.6,210.28571428571428l16,0 C150.6,210.28571428571428 229.2,101.14285714285714 229.2,101.14285714285714l16,0 C245.2,101.14285714285714 323.79999999999995,210.28571428571425 323.79999999999995,210.28571428571425l16,0 C339.79999999999995,210.28571428571425 418.4,202.28571428571425 418.4,202.28571428571425l16,0 C434.4,202.28571428571425 513,303.4285714285714 513,303.4285714285714l16,0 l0,44.57142857142856 l -16,0 C513,347.99999999999994 434.4,246.8571428571428 434.4,246.8571428571428l-16,0 C418.4,246.8571428571428 339.79999999999995,254.8571428571428 339.79999999999995,254.8571428571428l-16,0 C323.79999999999995,254.8571428571428 245.2,145.7142857142857 245.2,145.7142857142857l-16,0 C229.2,145.7142857142857 150.6,254.85714285714283 150.6,254.85714285714283l-16,0 C134.6,254.85714285714283 56,254.85714285714283 56,254.85714285714283l-16,0 Z"/><path class="path" stroke-opacity="1" fill="rgb(255, 216, 0)" fill-opacity="0.6" stroke="lightgray" stroke-width="0.2" d="M 40,262.85714285714283l16,0 C56,262.85714285714283 134.6,254.85714285714283 134.6,254.85714285714283l16,0 C150.6,254.85714285714283 229.2,258.85714285714283 229.2,258.85714285714283l16,0 C245.2,258.85714285714283 323.79999999999995,254.8571428571428 323.79999999999995,254.8571428571428l16,0 C339.79999999999995,254.8571428571428 418.4,246.8571428571428 418.4,246.8571428571428l16,0 C434.4,246.8571428571428 513,56.57142857142856 513,56.57142857142856l16,0 l0,44.57142857142856 l -16,0 C513,101.14285714285712 434.4,291.4285714285714 434.4,291.4285714285714l-16,0 C418.4,291.4285714285714 339.79999999999995,299.4285714285714 339.79999999999995,299.4285714285714l-16,0 C323.79999999999995,299.4285714285714 245.2,303.4285714285714 245.2,303.4285714285714l-16,0 C229.2,303.4285714285714 150.6,299.4285714285714 150.6,299.4285714285714l-16,0 C134.6,299.4285714285714 56,307.4285714285714 56,307.4285714285714l-16,0 Z"/><path class="path" stroke-opacity="1" fill="rgb(255, 0, 0)" fill-opacity="0.6" stroke="lightgray" stroke-width="0.2" d="M 40,315.4285714285714l16,0 C56,315.4285714285714 134.6,299.4285714285714 134.6,299.4285714285714l16,0 C150.6,299.4285714285714 229.2,311.4285714285714 229.2,311.4285714285714l16,0 C245.2,311.4285714285714 323.79999999999995,299.4285714285714 323.79999999999995,299.4285714285714l16,0 C339.79999999999995,299.4285714285714 418.4,299.42857142857144 418.4,299.42857142857144l16,0 C434.4,299.42857142857144 513,101.14285714285712 513,101.14285714285712l16,0 l0,44.57142857142856 l -16,0 C513,145.7142857142857 434.4,344 434.4,344l-16,0 C418.4,344 339.79999999999995,343.99999999999994 339.79999999999995,343.99999999999994l-16,0 C323.79999999999995,343.99999999999994 245.2,355.99999999999994 245.2,355.99999999999994l-16,0 C229.2,355.99999999999994 150.6,343.99999999999994 150.6,343.99999999999994l-16,0 C134.6,343.99999999999994 56,359.99999999999994 56,359.99999999999994l-16,0 Z"/></g><g class="dimensions"><g class="dimension" transform="translate(40,0)"><g class="category" transform=""><rect class="catrect" pointer-events="none" fill="none" width="16" height="44.57142857142857" stroke="black" stroke-width="1" stroke-opacity="1"/><rect class="bandrect" stroke-opacity="1" fill="rgb(150, 0, 90)" fill-opacity="1" width="16" height="44.57142857142856" y="0" cursor="ns-resize" stroke="black" stroke-width="0.2"/><text class="catlabel" pointer-events="none" text-anchor="end" alignment-baseline="middle" x="-5" y="22.285714285714285" style="text-shadow: white 1px 1px 1px, white -1px -1px 1px, white 1px -1px 1px, white -1px 1px 1px; fill: rgb(42, 63, 95); font-family: 'Open Sans', verdana, arial, sans-serif; font-size: 10px; fill-opacity: 1; white-space: pre;">bd_xgb</text><text class="dimlabel" text-anchor="middle" alignment-baseline="baseline" cursor="ew-resize" x="8" y="-5" style="font-family: 'Open Sans', verdana, arial, sans-serif; font-size: 12px; fill: rgb(42, 63, 95); fill-opacity: 1;">method</text></g><g class="category" transform="translate(0,52.57142857142857)"><rect class="catrect" pointer-events="none" fill="none" width="16" height="44.57142857142857" stroke="black" stroke-width="1" stroke-opacity="1"/><rect class="bandrect" stroke-opacity="1" fill="rgb(0, 51, 255)" fill-opacity="1" width="16" height="44.57142857142856" y="0" cursor="ns-resize" stroke="black" stroke-width="0.2"/><text class="catlabel" pointer-events="none" text-anchor="end" alignment-baseline="middle" x="-5" y="22.285714285714285" style="text-shadow: white 1px 1px 1px, white -1px -1px 1px, white 1px -1px 1px, white -1px 1px 1px; fill: rgb(42, 63, 95); font-family: 'Open Sans', verdana, arial, sans-serif; font-size: 10px; fill-opacity: 1; white-space: pre;">entc_raf</text><text class="dimlabel" text-anchor="middle" alignment-baseline="baseline" cursor="ew-resize" x="8" y="-5" style="font-family: 'Open Sans', verdana, arial, sans-serif; font-size: 12px; fill: rgb(42, 63, 95); fill-opacity: 1;"/></g><g class="category" transform="translate(0,105.14285714285714)"><rect class="catrect" pointer-events="none" fill="none" width="16" height="44.57142857142857" stroke="black" stroke-width="1" stroke-opacity="1"/><rect class="bandrect" stroke-opacity="1" fill="rgb(28, 217, 189)" fill-opacity="1" width="16" height="44.57142857142856" y="0" cursor="ns-resize" stroke="black" stroke-width="0.2"/><text class="catlabel" pointer-events="none" text-anchor="end" alignment-baseline="middle" x="-5" y="22.285714285714285" style="text-shadow: white 1px 1px 1px, white -1px -1px 1px, white 1px -1px 1px, white -1px 1px 1px; fill: rgb(42, 63, 95); font-family: 'Open Sans', verdana, arial, sans-serif; font-size: 10px; fill-opacity: 1; white-space: pre;">lifc_raf</text><text class="dimlabel" text-anchor="middle" alignment-baseline="baseline" cursor="ew-resize" x="8" y="-5" style="font-family: 'Open Sans', verdana, arial, sans-serif; font-size: 12px; fill: rgb(42, 63, 95); fill-opacity: 1;"/></g><g class="category" transform="translate(0,157.71428571428572)"><rect class="catrect" pointer-events="none" fill="none" width="16" height="44.57142857142857" stroke="black" stroke-width="1" stroke-opacity="1"/><rect class="bandrect" stroke-opacity="1" fill="rgb(172, 251, 0)" fill-opacity="1" width="16" height="44.57142857142856" y="0" cursor="ns-resize" stroke="black" stroke-width="0.2"/><text class="catlabel" pointer-events="none" text-anchor="end" alignment-baseline="middle" x="-5" y="22.285714285714285" style="text-shadow: white 1px 1px 1px, white -1px -1px 1px, white 1px -1px 1px, white -1px 1px 1px; fill: rgb(42, 63, 95); font-family: 'Open Sans', verdana, arial, sans-serif; font-size: 10px; fill-opacity: 1; white-space: pre;">land_raf</text><text class="dimlabel" text-anchor="middle" alignment-baseline="baseline" cursor="ew-resize" x="8" y="-5" style="font-family: 'Open Sans', verdana, arial, sans-serif; font-size: 12px; fill: rgb(42, 63, 95); fill-opacity: 1;"/></g><g class="category" transform="translate(0,210.28571428571428)"><rect class="catrect" pointer-events="none" fill="none" width="16" height="44.57142857142857" stroke="black" stroke-width="1" stroke-opacity="1"/><rect class="bandrect" stroke-opacity="1" fill="rgb(252, 235, 0)" fill-opacity="1" width="16" height="44.57142857142856" y="0" cursor="ns-resize" stroke="black" stroke-width="0.2"/><text class="catlabel" pointer-events="none" text-anchor="end" alignment-baseline="middle" x="-5" y="22.285714285714285" style="text-shadow: white 1px 1px 1px, white -1px -1px 1px, white 1px -1px 1px, white -1px 1px 1px; fill: rgb(42, 63, 95); font-family: 'Open Sans', verdana, arial, sans-serif; font-size: 10px; fill-opacity: 1; white-space: pre;">wdpca_lda</text><text class="dimlabel" text-anchor="middle" alignment-baseline="baseline" cursor="ew-resize" x="8" y="-5" style="font-family: 'Open Sans', verdana, arial, sans-serif; font-size: 12px; fill: rgb(42, 63, 95); fill-opacity: 1;"/></g><g class="category" transform="translate(0,262.85714285714283)"><rect class="catrect" pointer-events="none" fill="none" width="16" height="44.57142857142857" stroke="black" stroke-width="1" stroke-opacity="1"/><rect class="bandrect" stroke-opacity="1" fill="rgb(255, 216, 0)" fill-opacity="1" width="16" height="44.57142857142856" y="0" cursor="ns-resize" stroke="black" stroke-width="0.2"/><text class="catlabel" pointer-events="none" text-anchor="end" alignment-baseline="middle" x="-5" y="22.285714285714285" style="text-shadow: white 1px 1px 1px, white -1px -1px 1px, white 1px -1px 1px, white -1px 1px 1px; fill: rgb(42, 63, 95); font-family: 'Open Sans', verdana, arial, sans-serif; font-size: 10px; fill-opacity: 1; white-space: pre;">trop_lda</text><text class="dimlabel" text-anchor="middle" alignment-baseline="baseline" cursor="ew-resize" x="8" y="-5" style="font-family: 'Open Sans', verdana, arial, sans-serif; font-size: 12px; fill: rgb(42, 63, 95); fill-opacity: 1;"/></g><g class="category" transform="translate(0,315.4285714285714)"><rect class="catrect" pointer-events="none" fill="none" width="16" height="44.57142857142857" stroke="black" stroke-width="1" stroke-opacity="1"/><rect class="bandrect" stroke-opacity="1" fill="rgb(255, 0, 0)" fill-opacity="1" width="16" height="44.57142857142856" y="0" cursor="ns-resize" stroke="black" stroke-width="0.2"/><text class="catlabel" pointer-events="none" text-anchor="end" alignment-baseline="middle" x="-5" y="22.285714285714285" style="text-shadow: white 1px 1px 1px, white -1px -1px 1px, white 1px -1px 1px, white -1px 1px 1px; fill: rgb(42, 63, 95); font-family: 'Open Sans', verdana, arial, sans-serif; font-size: 10px; fill-opacity: 1; white-space: pre;">pima_raf</text><text class="dimlabel" text-anchor="middle" alignment-baseline="baseline" cursor="ew-resize" x="8" y="-5" style="font-family: 'Open Sans', verdana, arial, sans-serif; font-size: 12px; fill: rgb(42, 63, 95); fill-opacity: 1;"/></g></g><g class="dimension" transform="translate(134.6,0)"><g class="category" transform="translate(0,16)"><rect class="catrect" pointer-events="none" fill="none" width="16" height="89.14285714285714" stroke="black" stroke-width="1" stroke-opacity="1"/><rect class="bandrect" stroke-opacity="1" fill="rgb(150, 0, 90)" fill-opacity="1" width="16" height="44.57142857142856" y="0" cursor="ns-resize" stroke="black" stroke-width="0.2"/><rect class="bandrect" stroke-opacity="1" fill="rgb(0, 51, 255)" fill-opacity="1" width="16" height="44.57142857142856" y="44.57142857142856" cursor="ns-resize" stroke="black" stroke-width="0.2"/><text class="catlabel" pointer-events="none" text-anchor="end" alignment-baseline="middle" x="-5" y="44.57142857142857" style="text-shadow: white 1px 1px 1px, white -1px -1px 1px, white 1px -1px 1px, white -1px 1px 1px; fill: rgb(42, 63, 95); font-family: 'Open Sans', verdana, arial, sans-serif; font-size: 10px; fill-opacity: 1; white-space: pre;">0.3</text><text class="dimlabel" text-anchor="middle" alignment-baseline="baseline" cursor="ew-resize" x="8" y="-5" style="font-family: 'Open Sans', verdana, arial, sans-serif; font-size: 12px; fill: rgb(42, 63, 95); fill-opacity: 1;">L1</text></g><g class="category" transform="translate(0,113.14285714285714)"><rect class="catrect" pointer-events="none" fill="none" width="16" height="44.57142857142857" stroke="black" stroke-width="1" stroke-opacity="1"/><rect class="bandrect" stroke-opacity="1" fill="rgb(28, 217, 189)" fill-opacity="1" width="16" height="44.57142857142856" y="0" cursor="ns-resize" stroke="black" stroke-width="0.2"/><text class="catlabel" pointer-events="none" text-anchor="end" alignment-baseline="middle" x="-5" y="22.285714285714285" style="text-shadow: white 1px 1px 1px, white -1px -1px 1px, white 1px -1px 1px, white -1px 1px 1px; fill: rgb(42, 63, 95); font-family: 'Open Sans', verdana, arial, sans-serif; font-size: 10px; fill-opacity: 1; white-space: pre;">0.4</text><text class="dimlabel" text-anchor="middle" alignment-baseline="baseline" cursor="ew-resize" x="8" y="-5" style="font-family: 'Open Sans', verdana, arial, sans-serif; font-size: 12px; fill: rgb(42, 63, 95); fill-opacity: 1;"/></g><g class="category" transform="translate(0,165.71428571428572)"><rect class="catrect" pointer-events="none" fill="none" width="16" height="178.28571428571428" stroke="black" stroke-width="1" stroke-opacity="1"/><rect class="bandrect" stroke-opacity="1" fill="rgb(172, 251, 0)" fill-opacity="1" width="16" height="44.57142857142856" y="0" cursor="ns-resize" stroke="black" stroke-width="0.2"/><rect class="bandrect" stroke-opacity="1" fill="rgb(252, 235, 0)" fill-opacity="1" width="16" height="44.57142857142856" y="44.57142857142856" cursor="ns-resize" stroke="black" stroke-width="0.2"/><rect class="bandrect" stroke-opacity="1" fill="rgb(255, 216, 0)" fill-opacity="1" width="16" height="44.57142857142856" y="89.14285714285712" cursor="ns-resize" stroke="black" stroke-width="0.2"/><rect class="bandrect" stroke-opacity="1" fill="rgb(255, 0, 0)" fill-opacity="1" width="16" height="44.57142857142856" y="133.7142857142857" cursor="ns-resize" stroke="black" stroke-width="0.2"/><text class="catlabel" pointer-events="none" text-anchor="end" alignment-baseline="middle" x="-5" y="89.14285714285714" style="text-shadow: white 1px 1px 1px, white -1px -1px 1px, white 1px -1px 1px, white -1px 1px 1px; fill: rgb(42, 63, 95); font-family: 'Open Sans', verdana, arial, sans-serif; font-size: 10px; fill-opacity: 1; white-space: pre;">0.45</text><text class="dimlabel" text-anchor="middle" alignment-baseline="baseline" cursor="ew-resize" x="8" y="-5" style="font-family: 'Open Sans', verdana, arial, sans-serif; font-size: 12px; fill: rgb(42, 63, 95); fill-opacity: 1;"/></g></g><g class="dimension" transform="translate(229.2,0)"><g class="category" transform="translate(0,4)"><rect class="catrect" pointer-events="none" fill="none" width="16" height="44.57142857142857" stroke="black" stroke-width="1" stroke-opacity="1"/><rect class="bandrect" stroke-opacity="1" fill="rgb(150, 0, 90)" fill-opacity="1" width="16" height="44.57142857142856" y="0" cursor="ns-resize" stroke="black" stroke-width="0.2"/><text class="catlabel" pointer-events="none" text-anchor="end" alignment-baseline="middle" x="-5" y="22.285714285714285" style="text-shadow: white 1px 1px 1px, white -1px -1px 1px, white 1px -1px 1px, white -1px 1px 1px; fill: rgb(42, 63, 95); font-family: 'Open Sans', verdana, arial, sans-serif; font-size: 10px; fill-opacity: 1; white-space: pre;">0.35</text><text class="dimlabel" text-anchor="middle" alignment-baseline="baseline" cursor="ew-resize" x="8" y="-5" style="font-family: 'Open Sans', verdana, arial, sans-serif; font-size: 12px; fill: rgb(42, 63, 95); fill-opacity: 1;">L23</text></g><g class="category" transform="translate(0,56.57142857142857)"><rect class="catrect" pointer-events="none" fill="none" width="16" height="89.14285714285714" stroke="black" stroke-width="1" stroke-opacity="1"/><rect class="bandrect" stroke-opacity="1" fill="rgb(0, 51, 255)" fill-opacity="1" width="16" height="44.57142857142856" y="0" cursor="ns-resize" stroke="black" stroke-width="0.2"/><rect class="bandrect" stroke-opacity="1" fill="rgb(252, 235, 0)" fill-opacity="1" width="16" height="44.57142857142856" y="44.57142857142856" cursor="ns-resize" stroke="black" stroke-width="0.2"/><text class="catlabel" pointer-events="none" text-anchor="end" alignment-baseline="middle" x="-5" y="44.57142857142857" style="text-shadow: white 1px 1px 1px, white -1px -1px 1px, white 1px -1px 1px, white -1px 1px 1px; fill: rgb(42, 63, 95); font-family: 'Open Sans', verdana, arial, sans-serif; font-size: 10px; fill-opacity: 1; white-space: pre;">0.5</text><text class="dimlabel" text-anchor="middle" alignment-baseline="baseline" cursor="ew-resize" x="8" y="-5" style="font-family: 'Open Sans', verdana, arial, sans-serif; font-size: 12px; fill: rgb(42, 63, 95); fill-opacity: 1;"/></g><g class="category" transform="translate(0,153.71428571428572)"><rect class="catrect" pointer-events="none" fill="none" width="16" height="44.57142857142857" stroke="black" stroke-width="1" stroke-opacity="1"/><rect class="bandrect" stroke-opacity="1" fill="rgb(28, 217, 189)" fill-opacity="1" width="16" height="44.57142857142856" y="0" cursor="ns-resize" stroke="black" stroke-width="0.2"/><text class="catlabel" pointer-events="none" text-anchor="end" alignment-baseline="middle" x="-5" y="22.285714285714285" style="text-shadow: white 1px 1px 1px, white -1px -1px 1px, white 1px -1px 1px, white -1px 1px 1px; fill: rgb(42, 63, 95); font-family: 'Open Sans', verdana, arial, sans-serif; font-size: 10px; fill-opacity: 1; white-space: pre;">0.4</text><text class="dimlabel" text-anchor="middle" alignment-baseline="baseline" cursor="ew-resize" x="8" y="-5" style="font-family: 'Open Sans', verdana, arial, sans-serif; font-size: 12px; fill: rgb(42, 63, 95); fill-opacity: 1;"/></g><g class="category" transform="translate(0,206.28571428571428)"><rect class="catrect" pointer-events="none" fill="none" width="16" height="44.57142857142857" stroke="black" stroke-width="1" stroke-opacity="1"/><rect class="bandrect" stroke-opacity="1" fill="rgb(172, 251, 0)" fill-opacity="1" width="16" height="44.57142857142856" y="0" cursor="ns-resize" stroke="black" stroke-width="0.2"/><text class="catlabel" pointer-events="none" text-anchor="end" alignment-baseline="middle" x="-5" y="22.285714285714285" style="text-shadow: white 1px 1px 1px, white -1px -1px 1px, white 1px -1px 1px, white -1px 1px 1px; fill: rgb(42, 63, 95); font-family: 'Open Sans', verdana, arial, sans-serif; font-size: 10px; fill-opacity: 1; white-space: pre;">0.45</text><text class="dimlabel" text-anchor="middle" alignment-baseline="baseline" cursor="ew-resize" x="8" y="-5" style="font-family: 'Open Sans', verdana, arial, sans-serif; font-size: 12px; fill: rgb(42, 63, 95); fill-opacity: 1;"/></g><g class="category" transform="translate(0,258.85714285714283)"><rect class="catrect" pointer-events="none" fill="none" width="16" height="44.57142857142857" stroke="black" stroke-width="1" stroke-opacity="1"/><rect class="bandrect" stroke-opacity="1" fill="rgb(255, 216, 0)" fill-opacity="1" width="16" height="44.57142857142856" y="0" cursor="ns-resize" stroke="black" stroke-width="0.2"/><text class="catlabel" pointer-events="none" text-anchor="end" alignment-baseline="middle" x="-5" y="22.285714285714285" style="text-shadow: white 1px 1px 1px, white -1px -1px 1px, white 1px -1px 1px, white -1px 1px 1px; fill: rgb(42, 63, 95); font-family: 'Open Sans', verdana, arial, sans-serif; font-size: 10px; fill-opacity: 1; white-space: pre;">0.55</text><text class="dimlabel" text-anchor="middle" alignment-baseline="baseline" cursor="ew-resize" x="8" y="-5" style="font-family: 'Open Sans', verdana, arial, sans-serif; font-size: 12px; fill: rgb(42, 63, 95); fill-opacity: 1;"/></g><g class="category" transform="translate(0,311.4285714285714)"><rect class="catrect" pointer-events="none" fill="none" width="16" height="44.57142857142857" stroke="black" stroke-width="1" stroke-opacity="1"/><rect class="bandrect" stroke-opacity="1" fill="rgb(255, 0, 0)" fill-opacity="1" width="16" height="44.57142857142856" y="0" cursor="ns-resize" stroke="black" stroke-width="0.2"/><text class="catlabel" pointer-events="none" text-anchor="end" alignment-baseline="middle" x="-5" y="22.285714285714285" style="text-shadow: white 1px 1px 1px, white -1px -1px 1px, white 1px -1px 1px, white -1px 1px 1px; fill: rgb(42, 63, 95); font-family: 'Open Sans', verdana, arial, sans-serif; font-size: 10px; fill-opacity: 1; white-space: pre;">0.6</text><text class="dimlabel" text-anchor="middle" alignment-baseline="baseline" cursor="ew-resize" x="8" y="-5" style="font-family: 'Open Sans', verdana, arial, sans-serif; font-size: 12px; fill: rgb(42, 63, 95); fill-opacity: 1;"/></g></g><g class="dimension" transform="translate(323.79999999999995,0)"><g class="category" transform="translate(0,16)"><rect class="catrect" pointer-events="none" fill="none" width="16" height="44.57142857142857" stroke="black" stroke-width="1" stroke-opacity="1"/><rect class="bandrect" stroke-opacity="1" fill="rgb(150, 0, 90)" fill-opacity="1" width="16" height="44.57142857142856" y="0" cursor="ns-resize" stroke="black" stroke-width="0.2"/><text class="catlabel" pointer-events="none" text-anchor="end" alignment-baseline="middle" x="-5" y="22.285714285714285" style="text-shadow: white 1px 1px 1px, white -1px -1px 1px, white 1px -1px 1px, white -1px 1px 1px; fill: rgb(42, 63, 95); font-family: 'Open Sans', verdana, arial, sans-serif; font-size: 10px; fill-opacity: 1; white-space: pre;">0.4</text><text class="dimlabel" text-anchor="middle" alignment-baseline="baseline" cursor="ew-resize" x="8" y="-5" style="font-family: 'Open Sans', verdana, arial, sans-serif; font-size: 12px; fill: rgb(42, 63, 95); fill-opacity: 1;">L4</text></g><g class="category" transform="translate(0,68.57142857142857)"><rect class="catrect" pointer-events="none" fill="none" width="16" height="44.57142857142857" stroke="black" stroke-width="1" stroke-opacity="1"/><rect class="bandrect" stroke-opacity="1" fill="rgb(0, 51, 255)" fill-opacity="1" width="16" height="44.57142857142856" y="0" cursor="ns-resize" stroke="black" stroke-width="0.2"/><text class="catlabel" pointer-events="none" text-anchor="end" alignment-baseline="middle" x="-5" y="22.285714285714285" style="text-shadow: white 1px 1px 1px, white -1px -1px 1px, white 1px -1px 1px, white -1px 1px 1px; fill: rgb(42, 63, 95); font-family: 'Open Sans', verdana, arial, sans-serif; font-size: 10px; fill-opacity: 1; white-space: pre;">0.45</text><text class="dimlabel" text-anchor="middle" alignment-baseline="baseline" cursor="ew-resize" x="8" y="-5" style="font-family: 'Open Sans', verdana, arial, sans-serif; font-size: 12px; fill: rgb(42, 63, 95); fill-opacity: 1;"/></g><g class="category" transform="translate(0,121.14285714285714)"><rect class="catrect" pointer-events="none" fill="none" width="16" height="222.85714285714286" stroke="black" stroke-width="1" stroke-opacity="1"/><rect class="bandrect" stroke-opacity="1" fill="rgb(28, 217, 189)" fill-opacity="1" width="16" height="44.57142857142856" y="0" cursor="ns-resize" stroke="black" stroke-width="0.2"/><rect class="bandrect" stroke-opacity="1" fill="rgb(172, 251, 0)" fill-opacity="1" width="16" height="44.57142857142856" y="44.57142857142856" cursor="ns-resize" stroke="black" stroke-width="0.2"/><rect class="bandrect" stroke-opacity="1" fill="rgb(252, 235, 0)" fill-opacity="1" width="16" height="44.57142857142856" y="89.14285714285712" cursor="ns-resize" stroke="black" stroke-width="0.2"/><rect class="bandrect" stroke-opacity="1" fill="rgb(255, 216, 0)" fill-opacity="1" width="16" height="44.57142857142856" y="133.7142857142857" cursor="ns-resize" stroke="black" stroke-width="0.2"/><rect class="bandrect" stroke-opacity="1" fill="rgb(255, 0, 0)" fill-opacity="1" width="16" height="44.57142857142856" y="178.28571428571425" cursor="ns-resize" stroke="black" stroke-width="0.2"/><text class="catlabel" pointer-events="none" text-anchor="end" alignment-baseline="middle" x="-5" y="111.42857142857143" style="text-shadow: white 1px 1px 1px, white -1px -1px 1px, white 1px -1px 1px, white -1px 1px 1px; fill: rgb(42, 63, 95); font-family: 'Open Sans', verdana, arial, sans-serif; font-size: 10px; fill-opacity: 1; white-space: pre;">0.5</text><text class="dimlabel" text-anchor="middle" alignment-baseline="baseline" cursor="ew-resize" x="8" y="-5" style="font-family: 'Open Sans', verdana, arial, sans-serif; font-size: 12px; fill: rgb(42, 63, 95); fill-opacity: 1;"/></g></g><g class="dimension" transform="translate(418.4,0)"><g class="category" transform="translate(0,16)"><rect class="catrect" pointer-events="none" fill="none" width="16" height="89.14285714285714" stroke="black" stroke-width="1" stroke-opacity="1"/><rect class="bandrect" stroke-opacity="1" fill="rgb(150, 0, 90)" fill-opacity="1" width="16" height="44.57142857142856" y="0" cursor="ns-resize" stroke="black" stroke-width="0.2"/><rect class="bandrect" stroke-opacity="1" fill="rgb(0, 51, 255)" fill-opacity="1" width="16" height="44.57142857142856" y="44.57142857142856" cursor="ns-resize" stroke="black" stroke-width="0.2"/><text class="catlabel" pointer-events="none" text-anchor="end" alignment-baseline="middle" x="-5" y="44.57142857142857" style="text-shadow: white 1px 1px 1px, white -1px -1px 1px, white 1px -1px 1px, white -1px 1px 1px; fill: rgb(42, 63, 95); font-family: 'Open Sans', verdana, arial, sans-serif; font-size: 10px; fill-opacity: 1; white-space: pre;">0.4</text><text class="dimlabel" text-anchor="middle" alignment-baseline="baseline" cursor="ew-resize" x="8" y="-5" style="font-family: 'Open Sans', verdana, arial, sans-serif; font-size: 12px; fill: rgb(42, 63, 95); fill-opacity: 1;">L5</text></g><g class="category" transform="translate(0,113.14285714285714)"><rect class="catrect" pointer-events="none" fill="none" width="16" height="178.28571428571428" stroke="black" stroke-width="1" stroke-opacity="1"/><rect class="bandrect" stroke-opacity="1" fill="rgb(28, 217, 189)" fill-opacity="1" width="16" height="44.57142857142856" y="0" cursor="ns-resize" stroke="black" stroke-width="0.2"/><rect class="bandrect" stroke-opacity="1" fill="rgb(172, 251, 0)" fill-opacity="1" width="16" height="44.57142857142856" y="44.57142857142856" cursor="ns-resize" stroke="black" stroke-width="0.2"/><rect class="bandrect" stroke-opacity="1" fill="rgb(252, 235, 0)" fill-opacity="1" width="16" height="44.57142857142856" y="89.14285714285712" cursor="ns-resize" stroke="black" stroke-width="0.2"/><rect class="bandrect" stroke-opacity="1" fill="rgb(255, 216, 0)" fill-opacity="1" width="16" height="44.57142857142856" y="133.7142857142857" cursor="ns-resize" stroke="black" stroke-width="0.2"/><text class="catlabel" pointer-events="none" text-anchor="end" alignment-baseline="middle" x="-5" y="89.14285714285714" style="text-shadow: white 1px 1px 1px, white -1px -1px 1px, white 1px -1px 1px, white -1px 1px 1px; fill: rgb(42, 63, 95); font-family: 'Open Sans', verdana, arial, sans-serif; font-size: 10px; fill-opacity: 1; white-space: pre;">0.45</text><text class="dimlabel" text-anchor="middle" alignment-baseline="baseline" cursor="ew-resize" x="8" y="-5" style="font-family: 'Open Sans', verdana, arial, sans-serif; font-size: 12px; fill: rgb(42, 63, 95); fill-opacity: 1;"/></g><g class="category" transform="translate(0,299.42857142857144)"><rect class="catrect" pointer-events="none" fill="none" width="16" height="44.57142857142857" stroke="black" stroke-width="1" stroke-opacity="1"/><rect class="bandrect" stroke-opacity="1" fill="rgb(255, 0, 0)" fill-opacity="1" width="16" height="44.57142857142856" y="0" cursor="ns-resize" stroke="black" stroke-width="0.2"/><text class="catlabel" pointer-events="none" text-anchor="end" alignment-baseline="middle" x="-5" y="22.285714285714285" style="text-shadow: white 1px 1px 1px, white -1px -1px 1px, white 1px -1px 1px, white -1px 1px 1px; fill: rgb(42, 63, 95); font-family: 'Open Sans', verdana, arial, sans-serif; font-size: 10px; fill-opacity: 1; white-space: pre;">0.55</text><text class="dimlabel" text-anchor="middle" alignment-baseline="baseline" cursor="ew-resize" x="8" y="-5" style="font-family: 'Open Sans', verdana, arial, sans-serif; font-size: 12px; fill: rgb(42, 63, 95); fill-opacity: 1;"/></g></g><g class="dimension" transform="translate(513,0)"><g class="category" transform="translate(0,12)"><rect class="catrect" pointer-events="none" fill="none" width="16" height="133.7142857142857" stroke="black" stroke-width="1" stroke-opacity="1"/><rect class="bandrect" stroke-opacity="1" fill="rgb(150, 0, 90)" fill-opacity="1" width="16" height="44.57142857142856" y="0" cursor="ns-resize" stroke="black" stroke-width="0.2"/><rect class="bandrect" stroke-opacity="1" fill="rgb(255, 216, 0)" fill-opacity="1" width="16" height="44.57142857142856" y="44.57142857142856" cursor="ns-resize" stroke="black" stroke-width="0.2"/><rect class="bandrect" stroke-opacity="1" fill="rgb(255, 0, 0)" fill-opacity="1" width="16" height="44.57142857142856" y="89.14285714285712" cursor="ns-resize" stroke="black" stroke-width="0.2"/><text class="catlabel" pointer-events="none" text-anchor="start" alignment-baseline="middle" x="21" y="66.85714285714285" style="text-shadow: white 1px 1px 1px, white -1px -1px 1px, white 1px -1px 1px, white -1px 1px 1px; fill: rgb(42, 63, 95); font-family: 'Open Sans', verdana, arial, sans-serif; font-size: 10px; fill-opacity: 1; white-space: pre;">0.6</text><text class="dimlabel" text-anchor="middle" alignment-baseline="baseline" cursor="ew-resize" x="8" y="-5" style="font-family: 'Open Sans', verdana, arial, sans-serif; font-size: 12px; fill: rgb(42, 63, 95); fill-opacity: 1;">L6</text></g><g class="category" transform="translate(0,153.7142857142857)"><rect class="catrect" pointer-events="none" fill="none" width="16" height="44.57142857142857" stroke="black" stroke-width="1" stroke-opacity="1"/><rect class="bandrect" stroke-opacity="1" fill="rgb(0, 51, 255)" fill-opacity="1" width="16" height="44.57142857142856" y="0" cursor="ns-resize" stroke="black" stroke-width="0.2"/><text class="catlabel" pointer-events="none" text-anchor="start" alignment-baseline="middle" x="21" y="22.285714285714285" style="text-shadow: white 1px 1px 1px, white -1px -1px 1px, white 1px -1px 1px, white -1px 1px 1px; fill: rgb(42, 63, 95); font-family: 'Open Sans', verdana, arial, sans-serif; font-size: 10px; fill-opacity: 1; white-space: pre;">0.5</text><text class="dimlabel" text-anchor="middle" alignment-baseline="baseline" cursor="ew-resize" x="8" y="-5" style="font-family: 'Open Sans', verdana, arial, sans-serif; font-size: 12px; fill: rgb(42, 63, 95); fill-opacity: 1;"/></g><g class="category" transform="translate(0,206.28571428571428)"><rect class="catrect" pointer-events="none" fill="none" width="16" height="44.57142857142857" stroke="black" stroke-width="1" stroke-opacity="1"/><rect class="bandrect" stroke-opacity="1" fill="rgb(28, 217, 189)" fill-opacity="1" width="16" height="44.57142857142856" y="0" cursor="ns-resize" stroke="black" stroke-width="0.2"/><text class="catlabel" pointer-events="none" text-anchor="start" alignment-baseline="middle" x="21" y="22.285714285714285" style="text-shadow: white 1px 1px 1px, white -1px -1px 1px, white 1px -1px 1px, white -1px 1px 1px; fill: rgb(42, 63, 95); font-family: 'Open Sans', verdana, arial, sans-serif; font-size: 10px; fill-opacity: 1; white-space: pre;">0.65</text><text class="dimlabel" text-anchor="middle" alignment-baseline="baseline" cursor="ew-resize" x="8" y="-5" style="font-family: 'Open Sans', verdana, arial, sans-serif; font-size: 12px; fill: rgb(42, 63, 95); fill-opacity: 1;"/></g><g class="category" transform="translate(0,258.85714285714283)"><rect class="catrect" pointer-events="none" fill="none" width="16" height="89.14285714285714" stroke="black" stroke-width="1" stroke-opacity="1"/><rect class="bandrect" stroke-opacity="1" fill="rgb(172, 251, 0)" fill-opacity="1" width="16" height="44.57142857142856" y="0" cursor="ns-resize" stroke="black" stroke-width="0.2"/><rect class="bandrect" stroke-opacity="1" fill="rgb(252, 235, 0)" fill-opacity="1" width="16" height="44.57142857142856" y="44.57142857142856" cursor="ns-resize" stroke="black" stroke-width="0.2"/><text class="catlabel" pointer-events="none" text-anchor="start" alignment-baseline="middle" x="21" y="44.57142857142857" style="text-shadow: white 1px 1px 1px, white -1px -1px 1px, white 1px -1px 1px, white -1px 1px 1px; fill: rgb(42, 63, 95); font-family: 'Open Sans', verdana, arial, sans-serif; font-size: 10px; fill-opacity: 1; white-space: pre;">0.7</text><text class="dimlabel" text-anchor="middle" alignment-baseline="baseline" cursor="ew-resize" x="8" y="-5" style="font-family: 'Open Sans', verdana, arial, sans-serif; font-size: 12px; fill: rgb(42, 63, 95); fill-opacity: 1;"/></g></g></g></g></g><defs id="topdefs-dc643d"><g class="clips"/></defs><g class="layer-above"><g class="imagelayer"/><g class="shapelayer"/></g><g class="infolayer"><g class="cbcoloraxis colorbar" transform="translate(80,60)"><rect class="cbbg" x="580" y="0" width="77.265625" height="360" style="fill: rgb(0, 0, 0); fill-opacity: 0; stroke: rgb(68, 68, 68); stroke-opacity: 1; stroke-width: 0;"/><g class="cbfills" transform="translate(0,32)"><rect class="cbfill gradient_filled" x="590" y="0" width="30" height="318" style="fill: url('#gdc643d-cbcoloraxis');"/></g><g class="cblines" transform="translate(0,32)"/><g class="cbaxis crisp" transform="translate(0,-60)"><g class="ycbcoloraxistick"><text text-anchor="start" x="622.9" y="4.199999999999999" transform="translate(0,385.42)" style="font-family: 'Open Sans', verdana, arial, sans-serif; font-size: 12px; fill: rgb(42, 63, 95); fill-opacity: 1; white-space: pre; opacity: 1;">0.4</text></g><g class="ycbcoloraxistick"><text text-anchor="start" x="622.9" y="4.199999999999999" style="font-family: 'Open Sans', verdana, arial, sans-serif; font-size: 12px; fill: rgb(42, 63, 95); fill-opacity: 1; white-space: pre; opacity: 1;" transform="translate(0,343.82)">0.42</text></g><g class="ycbcoloraxistick"><text text-anchor="start" x="622.9" y="4.199999999999999" style="font-family: 'Open Sans', verdana, arial, sans-serif; font-size: 12px; fill: rgb(42, 63, 95); fill-opacity: 1; white-space: pre; opacity: 1;" transform="translate(0,302.23)">0.44</text></g><g class="ycbcoloraxistick"><text text-anchor="start" x="622.9" y="4.199999999999999" style="font-family: 'Open Sans', verdana, arial, sans-serif; font-size: 12px; fill: rgb(42, 63, 95); fill-opacity: 1; white-space: pre; opacity: 1;" transform="translate(0,260.64)">0.46</text></g><g class="ycbcoloraxistick"><text text-anchor="start" x="622.9" y="4.199999999999999" style="font-family: 'Open Sans', verdana, arial, sans-serif; font-size: 12px; fill: rgb(42, 63, 95); fill-opacity: 1; white-space: pre; opacity: 1;" transform="translate(0,219.04000000000002)">0.48</text></g><g class="ycbcoloraxistick"><text text-anchor="start" x="622.9" y="4.199999999999999" style="font-family: 'Open Sans', verdana, arial, sans-serif; font-size: 12px; fill: rgb(42, 63, 95); fill-opacity: 1; white-space: pre; opacity: 1;" transform="translate(0,177.45)">0.5</text></g><g class="ycbcoloraxistick"><text text-anchor="start" x="622.9" y="4.199999999999999" style="font-family: 'Open Sans', verdana, arial, sans-serif; font-size: 12px; fill: rgb(42, 63, 95); fill-opacity: 1; white-space: pre; opacity: 1;" transform="translate(0,135.86)">0.52</text></g><g class="ycbcoloraxistick"><text text-anchor="start" x="622.9" y="4.199999999999999" style="font-family: 'Open Sans', verdana, arial, sans-serif; font-size: 12px; fill: rgb(42, 63, 95); fill-opacity: 1; white-space: pre; opacity: 1;" transform="translate(0,94.26)">0.54</text></g></g><g class="cbtitleunshift" transform="translate(-80,-60)"><g class="cbtitle" transform=""><text class="ycbcoloraxistitle" x="670.38" y="83.5" text-anchor="start" style="font-family: 'Open Sans', verdana, arial, sans-serif; font-size: 14px; fill: rgb(42, 63, 95); opacity: 1; font-weight: normal; white-space: pre;">mean</text></g></g><rect class="cboutline" x="590" y="32" width="30" height="318" style="stroke: rgb(68, 68, 68); stroke-opacity: 1; fill: none; stroke-width: 0;"/></g><g class="g-gtitle"/></g></svg>