<svg class="main-svg" xmlns="http://www.w3.org/2000/svg" xmlns:xlink="http://www.w3.org/1999/xlink" width="750" height="300" style="" viewBox="0 0 750 300"><rect x="0" y="0" width="750" height="300" style="fill: rgb(255, 255, 255); fill-opacity: 1;"/><defs id="defs-3da4f3"><g class="clips"/><g class="gradients"><linearGradient x1="0" x2="0" y1="1" y2="0" id="g3da4f3-cbcoloraxis"><stop offset="0%" stop-color="rgb(150, 0, 90)" stop-opacity="1"/><stop offset="12.5%" stop-color="rgb(0, 0, 200)" stop-opacity="1"/><stop offset="25%" stop-color="rgb(0, 25, 255)" stop-opacity="1"/><stop offset="37.5%" stop-color="rgb(0, 152, 255)" stop-opacity="1"/><stop offset="50%" stop-color="rgb(44, 255, 150)" stop-opacity="1"/><stop offset="62.5%" stop-color="rgb(151, 255, 0)" stop-opacity="1"/><stop offset="75%" stop-color="rgb(255, 234, 0)" stop-opacity="1"/><stop offset="87.5%" stop-color="rgb(255, 111, 0)" stop-opacity="1"/><stop offset="100%" stop-color="rgb(255, 0, 0)" stop-opacity="1"/></linearGradient></g><g class="patterns"/></defs><g class="bglayer"/><g class="layer-below"><g class="imagelayer"/><g class="shapelayer"/></g><g class="cartesianlayer"/><g class="polarlayer"/><g class="smithlayer"/><g class="ternarylayer"/><g class="geolayer"/><g class="funnelarealayer"/><g class="pielayer"/><g class="iciclelayer"/><g class="treemaplayer"/><g class="sunburstlayer"/><g class="glimages"/><g class="parcatslayer" style="pointer-events: none;"><g class="trace parcats" transform="translate(80,60)"><g class="paths"><path class="path" stroke-opacity="1" fill="rgb(150, 0, 90)" fill-opacity="0.6" stroke="lightgray" stroke-width="0.2" d="M 40,0l16,0 C56,0 134.6,4 134.6,4l16,0 C150.6,4 229.2,4 229.2,4l16,0 C245.2,4 323.79999999999995,8 323.79999999999995,8l16,0 C339.79999999999995,8 418.4,4 418.4,4l16,0 C434.4,4 513,4 513,4l16,0 l0,34 l -16,0 C513,38 434.4,38 434.4,38l-16,0 C418.4,38 339.79999999999995,42 339.79999999999995,42l-16,0 C323.79999999999995,42 245.2,38 245.2,38l-16,0 C229.2,38 150.6,38 150.6,38l-16,0 C134.6,38 56,34 56,34l-16,0 Z"/><path class="path" stroke-opacity="1" fill="rgb(70, 255, 113)" fill-opacity="0.6" stroke="lightgray" stroke-width="0.2" d="M 40,42l16,0 C56,42 134.6,46 134.6,46l16,0 C150.6,46 229.2,46 229.2,46l16,0 C245.2,46 323.79999999999995,42 323.79999999999995,42l16,0 C339.79999999999995,42 418.4,38 418.4,38l16,0 C434.4,38 513,46 513,46l16,0 l0,34 l -16,0 C513,80 434.4,72 434.4,72l-16,0 C418.4,72 339.79999999999995,76 339.79999999999995,76l-16,0 C323.79999999999995,76 245.2,80 245.2,80l-16,0 C229.2,80 150.6,80 150.6,80l-16,0 C134.6,80 56,76 56,76l-16,0 Z"/><path class="path" stroke-opacity="1" fill="rgb(255, 113, 0)" fill-opacity="0.6" stroke="lightgray" stroke-width="0.2" d="M 40,84l16,0 C56,84 134.6,88 134.6,88l16,0 C150.6,88 229.2,88 229.2,88l16,0 C245.2,88 323.79999999999995,118 323.79999999999995,118l16,0 C339.79999999999995,118 418.4,80 418.4,80l16,0 C434.4,80 513,80 513,80l16,0 l0,34 l -16,0 C513,114 434.4,114 434.4,114l-16,0 C418.4,114 339.79999999999995,152 339.79999999999995,152l-16,0 C323.79999999999995,152 245.2,122 245.2,122l-16,0 C229.2,122 150.6,122 150.6,122l-16,0 C134.6,122 56,118 56,118l-16,0 Z"/><path class="path" stroke-opacity="1" fill="rgb(255, 0, 0)" fill-opacity="0.6" stroke="lightgray" stroke-width="0.2" d="M 40,126l16,0 C56,126 134.6,122 134.6,122l16,0 C150.6,122 229.2,122 229.2,122l16,0 C245.2,122 323.79999999999995,76 323.79999999999995,76l16,0 C339.79999999999995,76 418.4,122 418.4,122l16,0 C434.4,122 513,122 513,122l16,0 l0,34 l -16,0 C513,156 434.4,156 434.4,156l-16,0 C418.4,156 339.79999999999995,110 339.79999999999995,110l-16,0 C323.79999999999995,110 245.2,156 245.2,156l-16,0 C229.2,156 150.6,156 150.6,156l-16,0 C134.6,156 56,160 56,160l-16,0 Z"/></g><g class="dimensions"><g class="dimension" transform="translate(40,0)"><g class="category" transform=""><rect class="catrect" pointer-events="none" fill="none" width="16" height="34" stroke="black" stroke-width="1" stroke-opacity="1"/><rect class="bandrect" stroke-opacity="1" fill="rgb(150, 0, 90)" fill-opacity="1" width="16" height="34" y="0" cursor="ns-resize" stroke="black" stroke-width="0.2"/><text class="catlabel" pointer-events="none" text-anchor="end" alignment-baseline="middle" x="-5" y="17" style="text-shadow: white 1px 1px 1px, white -1px -1px 1px, white 1px -1px 1px, white -1px 1px 1px; fill: rgb(42, 63, 95); font-family: 'Open Sans', verdana, arial, sans-serif; font-size: 10px; fill-opacity: 1; white-space: pre;">gnn</text><text class="dimlabel" text-anchor="middle" alignment-baseline="baseline" cursor="ew-resize" x="8" y="-5" style="font-family: 'Open Sans', verdana, arial, sans-serif; font-size: 12px; fill: rgb(42, 63, 95); fill-opacity: 1;">method</text></g><g class="category" transform="translate(0,42)"><rect class="catrect" pointer-events="none" fill="none" width="16" height="34" stroke="black" stroke-width="1" stroke-opacity="1"/><rect class="bandrect" stroke-opacity="1" fill="rgb(70, 255, 113)" fill-opacity="1" width="16" height="34" y="0" cursor="ns-resize" stroke="black" stroke-width="0.2"/><text class="catlabel" pointer-events="none" text-anchor="end" alignment-baseline="middle" x="-5" y="17" style="text-shadow: white 1px 1px 1px, white -1px -1px 1px, white 1px -1px 1px, white -1px 1px 1px; fill: rgb(42, 63, 95); font-family: 'Open Sans', verdana, arial, sans-serif; font-size: 10px; fill-opacity: 1; white-space: pre;">xgb_morpho</text><text class="dimlabel" text-anchor="middle" alignment-baseline="baseline" cursor="ew-resize" x="8" y="-5" style="font-family: 'Open Sans', verdana, arial, sans-serif; font-size: 12px; fill: rgb(42, 63, 95); fill-opacity: 1;"/></g><g class="category" transform="translate(0,84)"><rect class="catrect" pointer-events="none" fill="none" width="16" height="34" stroke="black" stroke-width="1" stroke-opacity="1"/><rect class="bandrect" stroke-opacity="1" fill="rgb(255, 113, 0)" fill-opacity="1" width="16" height="34" y="0" cursor="ns-resize" stroke="black" stroke-width="0.2"/><text class="catlabel" pointer-events="none" text-anchor="end" alignment-baseline="middle" x="-5" y="17" style="text-shadow: white 1px 1px 1px, white -1px -1px 1px, white 1px -1px 1px, white -1px 1px 1px; fill: rgb(42, 63, 95); font-family: 'Open Sans', verdana, arial, sans-serif; font-size: 10px; fill-opacity: 1; white-space: pre;">Perslay</text><text class="dimlabel" text-anchor="middle" alignment-baseline="baseline" cursor="ew-resize" x="8" y="-5" style="font-family: 'Open Sans', verdana, arial, sans-serif; font-size: 12px; fill: rgb(42, 63, 95); fill-opacity: 1;"/></g><g class="category" transform="translate(0,126)"><rect class="catrect" pointer-events="none" fill="none" width="16" height="34" stroke="black" stroke-width="1" stroke-opacity="1"/><rect class="bandrect" stroke-opacity="1" fill="rgb(255, 0, 0)" fill-opacity="1" width="16" height="34" y="0" cursor="ns-resize" stroke="black" stroke-width="0.2"/><text class="catlabel" pointer-events="none" text-anchor="end" alignment-baseline="middle" x="-5" y="17" style="text-shadow: white 1px 1px 1px, white -1px -1px 1px, white 1px -1px 1px, white -1px 1px 1px; fill: rgb(42, 63, 95); font-family: 'Open Sans', verdana, arial, sans-serif; font-size: 10px; fill-opacity: 1; white-space: pre;">cnn</text><text class="dimlabel" text-anchor="middle" alignment-baseline="baseline" cursor="ew-resize" x="8" y="-5" style="font-family: 'Open Sans', verdana, arial, sans-serif; font-size: 12px; fill: rgb(42, 63, 95); fill-opacity: 1;"/></g></g><g class="dimension" transform="translate(134.6,0)"><g class="category" transform="translate(0,4)"><rect class="catrect" pointer-events="none" fill="none" width="16" height="34" stroke="black" stroke-width="1" stroke-opacity="1"/><rect class="bandrect" stroke-opacity="1" fill="rgb(150, 0, 90)" fill-opacity="1" width="16" height="34" y="0" cursor="ns-resize" stroke="black" stroke-width="0.2"/><text class="catlabel" pointer-events="none" text-anchor="end" alignment-baseline="middle" x="-5" y="17" style="text-shadow: white 1px 1px 1px, white -1px -1px 1px, white 1px -1px 1px, white -1px 1px 1px; fill: rgb(42, 63, 95); font-family: 'Open Sans', verdana, arial, sans-serif; font-size: 10px; fill-opacity: 1; white-space: pre;">0.7</text><text class="dimlabel" text-anchor="middle" alignment-baseline="baseline" cursor="ew-resize" x="8" y="-5" style="font-family: 'Open Sans', verdana, arial, sans-serif; font-size: 12px; fill: rgb(42, 63, 95); fill-opacity: 1;">L2</text></g><g class="category" transform="translate(0,46)"><rect class="catrect" pointer-events="none" fill="none" width="16" height="34" stroke="black" stroke-width="1" stroke-opacity="1"/><rect class="bandrect" stroke-opacity="1" fill="rgb(70, 255, 113)" fill-opacity="1" width="16" height="34" y="0" cursor="ns-resize" stroke="black" stroke-width="0.2"/><text class="catlabel" pointer-events="none" text-anchor="end" alignment-baseline="middle" x="-5" y="17" style="text-shadow: white 1px 1px 1px, white -1px -1px 1px, white 1px -1px 1px, white -1px 1px 1px; fill: rgb(42, 63, 95); font-family: 'Open Sans', verdana, arial, sans-serif; font-size: 10px; fill-opacity: 1; white-space: pre;">0.75</text><text class="dimlabel" text-anchor="middle" alignment-baseline="baseline" cursor="ew-resize" x="8" y="-5" style="font-family: 'Open Sans', verdana, arial, sans-serif; font-size: 12px; fill: rgb(42, 63, 95); fill-opacity: 1;"/></g><g class="category" transform="translate(0,88)"><rect class="catrect" pointer-events="none" fill="none" width="16" height="68" stroke="black" stroke-width="1" stroke-opacity="1"/><rect class="bandrect" stroke-opacity="1" fill="rgb(255, 113, 0)" fill-opacity="1" width="16" height="34" y="0" cursor="ns-resize" stroke="black" stroke-width="0.2"/><rect class="bandrect" stroke-opacity="1" fill="rgb(255, 0, 0)" fill-opacity="1" width="16" height="34" y="34" cursor="ns-resize" stroke="black" stroke-width="0.2"/><text class="catlabel" pointer-events="none" text-anchor="end" alignment-baseline="middle" x="-5" y="34" style="text-shadow: white 1px 1px 1px, white -1px -1px 1px, white 1px -1px 1px, white -1px 1px 1px; fill: rgb(42, 63, 95); font-family: 'Open Sans', verdana, arial, sans-serif; font-size: 10px; fill-opacity: 1; white-space: pre;">0.8</text><text class="dimlabel" text-anchor="middle" alignment-baseline="baseline" cursor="ew-resize" x="8" y="-5" style="font-family: 'Open Sans', verdana, arial, sans-serif; font-size: 12px; fill: rgb(42, 63, 95); fill-opacity: 1;"/></g></g><g class="dimension" transform="translate(229.2,0)"><g class="category" transform="translate(0,4)"><rect class="catrect" pointer-events="none" fill="none" width="16" height="34" stroke="black" stroke-width="1" stroke-opacity="1"/><rect class="bandrect" stroke-opacity="1" fill="rgb(150, 0, 90)" fill-opacity="1" width="16" height="34" y="0" cursor="ns-resize" stroke="black" stroke-width="0.2"/><text class="catlabel" pointer-events="none" text-anchor="end" alignment-baseline="middle" x="-5" y="17" style="text-shadow: white 1px 1px 1px, white -1px -1px 1px, white 1px -1px 1px, white -1px 1px 1px; fill: rgb(42, 63, 95); font-family: 'Open Sans', verdana, arial, sans-serif; font-size: 10px; fill-opacity: 1; white-space: pre;">0.75</text><text class="dimlabel" text-anchor="middle" alignment-baseline="baseline" cursor="ew-resize" x="8" y="-5" style="font-family: 'Open Sans', verdana, arial, sans-serif; font-size: 12px; fill: rgb(42, 63, 95); fill-opacity: 1;">L3</text></g><g class="category" transform="translate(0,46)"><rect class="catrect" pointer-events="none" fill="none" width="16" height="34" stroke="black" stroke-width="1" stroke-opacity="1"/><rect class="bandrect" stroke-opacity="1" fill="rgb(70, 255, 113)" fill-opacity="1" width="16" height="34" y="0" cursor="ns-resize" stroke="black" stroke-width="0.2"/><text class="catlabel" pointer-events="none" text-anchor="end" alignment-baseline="middle" x="-5" y="17" style="text-shadow: white 1px 1px 1px, white -1px -1px 1px, white 1px -1px 1px, white -1px 1px 1px; fill: rgb(42, 63, 95); font-family: 'Open Sans', verdana, arial, sans-serif; font-size: 10px; fill-opacity: 1; white-space: pre;">0.8</text><text class="dimlabel" text-anchor="middle" alignment-baseline="baseline" cursor="ew-resize" x="8" y="-5" style="font-family: 'Open Sans', verdana, arial, sans-serif; font-size: 12px; fill: rgb(42, 63, 95); fill-opacity: 1;"/></g><g class="category" transform="translate(0,88)"><rect class="catrect" pointer-events="none" fill="none" width="16" height="68" stroke="black" stroke-width="1" stroke-opacity="1"/><rect class="bandrect" stroke-opacity="1" fill="rgb(255, 113, 0)" fill-opacity="1" width="16" height="34" y="0" cursor="ns-resize" stroke="black" stroke-width="0.2"/><rect class="bandrect" stroke-opacity="1" fill="rgb(255, 0, 0)" fill-opacity="1" width="16" height="34" y="34" cursor="ns-resize" stroke="black" stroke-width="0.2"/><text class="catlabel" pointer-events="none" text-anchor="end" alignment-baseline="middle" x="-5" y="34" style="text-shadow: white 1px 1px 1px, white -1px -1px 1px, white 1px -1px 1px, white -1px 1px 1px; fill: rgb(42, 63, 95); font-family: 'Open Sans', verdana, arial, sans-serif; font-size: 10px; fill-opacity: 1; white-space: pre;">0.85</text><text class="dimlabel" text-anchor="middle" alignment-baseline="baseline" cursor="ew-resize" x="8" y="-5" style="font-family: 'Open Sans', verdana, arial, sans-serif; font-size: 12px; fill: rgb(42, 63, 95); fill-opacity: 1;"/></g></g><g class="dimension" transform="translate(323.79999999999995,0)"><g class="category" transform="translate(0,8)"><rect class="catrect" pointer-events="none" fill="none" width="16" height="102" stroke="black" stroke-width="1" stroke-opacity="1"/><rect class="bandrect" stroke-opacity="1" fill="rgb(150, 0, 90)" fill-opacity="1" width="16" height="34" y="0" cursor="ns-resize" stroke="black" stroke-width="0.2"/><rect class="bandrect" stroke-opacity="1" fill="rgb(70, 255, 113)" fill-opacity="1" width="16" height="34" y="34" cursor="ns-resize" stroke="black" stroke-width="0.2"/><rect class="bandrect" stroke-opacity="1" fill="rgb(255, 0, 0)" fill-opacity="1" width="16" height="34" y="68" cursor="ns-resize" stroke="black" stroke-width="0.2"/><text class="catlabel" pointer-events="none" text-anchor="end" alignment-baseline="middle" x="-5" y="51" style="text-shadow: white 1px 1px 1px, white -1px -1px 1px, white 1px -1px 1px, white -1px 1px 1px; fill: rgb(42, 63, 95); font-family: 'Open Sans', verdana, arial, sans-serif; font-size: 10px; fill-opacity: 1; white-space: pre;">0.75</text><text class="dimlabel" text-anchor="middle" alignment-baseline="baseline" cursor="ew-resize" x="8" y="-5" style="font-family: 'Open Sans', verdana, arial, sans-serif; font-size: 12px; fill: rgb(42, 63, 95); fill-opacity: 1;">L4</text></g><g class="category" transform="translate(0,118)"><rect class="catrect" pointer-events="none" fill="none" width="16" height="34" stroke="black" stroke-width="1" stroke-opacity="1"/><rect class="bandrect" stroke-opacity="1" fill="rgb(255, 113, 0)" fill-opacity="1" width="16" height="34" y="0" cursor="ns-resize" stroke="black" stroke-width="0.2"/><text class="catlabel" pointer-events="none" text-anchor="end" alignment-baseline="middle" x="-5" y="17" style="text-shadow: white 1px 1px 1px, white -1px -1px 1px, white 1px -1px 1px, white -1px 1px 1px; fill: rgb(42, 63, 95); font-family: 'Open Sans', verdana, arial, sans-serif; font-size: 10px; fill-opacity: 1; white-space: pre;">0.85</text><text class="dimlabel" text-anchor="middle" alignment-baseline="baseline" cursor="ew-resize" x="8" y="-5" style="font-family: 'Open Sans', verdana, arial, sans-serif; font-size: 12px; fill: rgb(42, 63, 95); fill-opacity: 1;"/></g></g><g class="dimension" transform="translate(418.4,0)"><g class="category" transform="translate(0,4)"><rect class="catrect" pointer-events="none" fill="none" width="16" height="68" stroke="black" stroke-width="1" stroke-opacity="1"/><rect class="bandrect" stroke-opacity="1" fill="rgb(150, 0, 90)" fill-opacity="1" width="16" height="34" y="0" cursor="ns-resize" stroke="black" stroke-width="0.2"/><rect class="bandrect" stroke-opacity="1" fill="rgb(70, 255, 113)" fill-opacity="1" width="16" height="34" y="34" cursor="ns-resize" stroke="black" stroke-width="0.2"/><text class="catlabel" pointer-events="none" text-anchor="end" alignment-baseline="middle" x="-5" y="34" style="text-shadow: white 1px 1px 1px, white -1px -1px 1px, white 1px -1px 1px, white -1px 1px 1px; fill: rgb(42, 63, 95); font-family: 'Open Sans', verdana, arial, sans-serif; font-size: 10px; fill-opacity: 1; white-space: pre;">0.7</text><text class="dimlabel" text-anchor="middle" alignment-baseline="baseline" cursor="ew-resize" x="8" y="-5" style="font-family: 'Open Sans', verdana, arial, sans-serif; font-size: 12px; fill: rgb(42, 63, 95); fill-opacity: 1;">L5</text></g><g class="category" transform="translate(0,80)"><rect class="catrect" pointer-events="none" fill="none" width="16" height="34" stroke="black" stroke-width="1" stroke-opacity="1"/><rect class="bandrect" stroke-opacity="1" fill="rgb(255, 113, 0)" fill-opacity="1" width="16" height="34" y="0" cursor="ns-resize" stroke="black" stroke-width="0.2"/><text class="catlabel" pointer-events="none" text-anchor="end" alignment-baseline="middle" x="-5" y="17" style="text-shadow: white 1px 1px 1px, white -1px -1px 1px, white 1px -1px 1px, white -1px 1px 1px; fill: rgb(42, 63, 95); font-family: 'Open Sans', verdana, arial, sans-serif; font-size: 10px; fill-opacity: 1; white-space: pre;">0.75</text><text class="dimlabel" text-anchor="middle" alignment-baseline="baseline" cursor="ew-resize" x="8" y="-5" style="font-family: 'Open Sans', verdana, arial, sans-serif; font-size: 12px; fill: rgb(42, 63, 95); fill-opacity: 1;"/></g><g class="category" transform="translate(0,122)"><rect class="catrect" pointer-events="none" fill="none" width="16" height="34" stroke="black" stroke-width="1" stroke-opacity="1"/><rect class="bandrect" stroke-opacity="1" fill="rgb(255, 0, 0)" fill-opacity="1" width="16" height="34" y="0" cursor="ns-resize" stroke="black" stroke-width="0.2"/><text class="catlabel" pointer-events="none" text-anchor="end" alignment-baseline="middle" x="-5" y="17" style="text-shadow: white 1px 1px 1px, white -1px -1px 1px, white 1px -1px 1px, white -1px 1px 1px; fill: rgb(42, 63, 95); font-family: 'Open Sans', verdana, arial, sans-serif; font-size: 10px; fill-opacity: 1; white-space: pre;">0.8</text><text class="dimlabel" text-anchor="middle" alignment-baseline="baseline" cursor="ew-resize" x="8" y="-5" style="font-family: 'Open Sans', verdana, arial, sans-serif; font-size: 12px; fill: rgb(42, 63, 95); fill-opacity: 1;"/></g></g><g class="dimension" transform="translate(513,0)"><g class="category" transform="translate(0,4)"><rect class="catrect" pointer-events="none" fill="none" width="16" height="34" stroke="black" stroke-width="1" stroke-opacity="1"/><rect class="bandrect" stroke-opacity="1" fill="rgb(150, 0, 90)" fill-opacity="1" width="16" height="34" y="0" cursor="ns-resize" stroke="black" stroke-width="0.2"/><text class="catlabel" pointer-events="none" text-anchor="start" alignment-baseline="middle" x="21" y="17" style="text-shadow: white 1px 1px 1px, white -1px -1px 1px, white 1px -1px 1px, white -1px 1px 1px; fill: rgb(42, 63, 95); font-family: 'Open Sans', verdana, arial, sans-serif; font-size: 10px; fill-opacity: 1; white-space: pre;">0.5</text><text class="dimlabel" text-anchor="middle" alignment-baseline="baseline" cursor="ew-resize" x="8" y="-5" style="font-family: 'Open Sans', verdana, arial, sans-serif; font-size: 12px; fill: rgb(42, 63, 95); fill-opacity: 1;">L6</text></g><g class="category" transform="translate(0,46)"><rect class="catrect" pointer-events="none" fill="none" width="16" height="68" stroke="black" stroke-width="1" stroke-opacity="1"/><rect class="bandrect" stroke-opacity="1" fill="rgb(70, 255, 113)" fill-opacity="1" width="16" height="34" y="0" cursor="ns-resize" stroke="black" stroke-width="0.2"/><rect class="bandrect" stroke-opacity="1" fill="rgb(255, 113, 0)" fill-opacity="1" width="16" height="34" y="34" cursor="ns-resize" stroke="black" stroke-width="0.2"/><text class="catlabel" pointer-events="none" text-anchor="start" alignment-baseline="middle" x="21" y="34" style="text-shadow: white 1px 1px 1px, white -1px -1px 1px, white 1px -1px 1px, white -1px 1px 1px; fill: rgb(42, 63, 95); font-family: 'Open Sans', verdana, arial, sans-serif; font-size: 10px; fill-opacity: 1; white-space: pre;">0.7</text><text class="dimlabel" text-anchor="middle" alignment-baseline="baseline" cursor="ew-resize" x="8" y="-5" style="font-family: 'Open Sans', verdana, arial, sans-serif; font-size: 12px; fill: rgb(42, 63, 95); fill-opacity: 1;"/></g><g class="category" transform="translate(0,122)"><rect class="catrect" pointer-events="none" fill="none" width="16" height="34" stroke="black" stroke-width="1" stroke-opacity="1"/><rect class="bandrect" stroke-opacity="1" fill="rgb(255, 0, 0)" fill-opacity="1" width="16" height="34" y="0" cursor="ns-resize" stroke="black" stroke-width="0.2"/><text class="catlabel" pointer-events="none" text-anchor="start" alignment-baseline="middle" x="21" y="17" style="text-shadow: white 1px 1px 1px, white -1px -1px 1px, white 1px -1px 1px, white -1px 1px 1px; fill: rgb(42, 63, 95); font-family: 'Open Sans', verdana, arial, sans-serif; font-size: 10px; fill-opacity: 1; white-space: pre;">0.75</text><text class="dimlabel" text-anchor="middle" alignment-baseline="baseline" cursor="ew-resize" x="8" y="-5" style="font-family: 'Open Sans', verdana, arial, sans-serif; font-size: 12px; fill: rgb(42, 63, 95); fill-opacity: 1;"/></g></g></g></g></g><defs id="topdefs-3da4f3"><g class="clips"/></defs><g class="layer-above"><g class="imagelayer"/><g class="shapelayer"/></g><g class="infolayer"><g class="cbcoloraxis colorbar" transform="translate(80,60)"><rect class="cbbg" x="580" y="0" width="77.265625" height="160" style="fill: rgb(0, 0, 0); fill-opacity: 0; stroke: rgb(68, 68, 68); stroke-opacity: 1; stroke-width: 0;"/><g class="cbfills" transform="translate(0,32)"><rect class="cbfill gradient_filled" x="590" y="0" width="30" height="118" style="fill: url('#g3da4f3-cbcoloraxis');"/></g><g class="cblines" transform="translate(0,32)"/><g class="cbaxis crisp" transform="translate(0,-60)"><g class="ycbcoloraxistick"><text text-anchor="start" x="622.9" y="4.199999999999999" transform="translate(0,171)" style="font-family: 'Open Sans', verdana, arial, sans-serif; font-size: 12px; fill: rgb(42, 63, 95); fill-opacity: 1; white-space: pre; opacity: 1;">0.7</text></g><g class="ycbcoloraxistick"><text text-anchor="start" x="622.9" y="4.199999999999999" style="font-family: 'Open Sans', verdana, arial, sans-serif; font-size: 12px; fill: rgb(42, 63, 95); fill-opacity: 1; white-space: pre; opacity: 1;" transform="translate(0,124.57)">0.75</text></g></g><g class="cbtitleunshift" transform="translate(-80,-60)"><g class="cbtitle" transform=""><text class="ycbcoloraxistitle" x="670.38" y="83.5" text-anchor="start" style="font-family: 'Open Sans', verdana, arial, sans-serif; font-size: 14px; fill: rgb(42, 63, 95); opacity: 1; font-weight: normal; white-space: pre;">mean</text></g></g><rect class="cboutline" x="590" y="32" width="30" height="118" style="stroke: rgb(68, 68, 68); stroke-opacity: 1; fill: none; stroke-width: 0;"/></g><g class="g-gtitle"/></g></svg>